<?xml version="1.0" encoding="utf-8"?>
<!-- Generator: Adobe Illustrator 25.4.1, SVG Export Plug-In . SVG Version: 6.00 Build 0)  -->
<svg version="1.1" id="Layer_1" xmlns="http://www.w3.org/2000/svg" xmlns:xlink="http://www.w3.org/1999/xlink" x="0px" y="0px"
	 viewBox="0 0 250 69" style="enable-background:new 0 0 250 69;" xml:space="preserve">
<style type="text/css">
	.st0{fill:#FBB043;}
	.st1{fill:#F47920;}
	.st2{fill:#333333;}
</style>
<g id="sparex_x5F_logo_x5F_primary_x5F_black_x5F_RGB_00000170975912903589299840000009868343066316200582_">
	<g>
		<g id="x_right_part_00000008844606860831108610000003934690751862532226_">
			<g>
				<path class="st0" d="M249.95,16.24h-17.74c-4.21,6.06-8.43,12.12-12.64,18.19c4.51,6.27,9.02,12.54,13.52,18.81h16.86
					l-13.07-18.81L249.95,16.24z"/>
			</g>
		</g>
		<g id="x_left_part_00000121992972242979727920000017100325694078686141_">
			<g>
				<path class="st1" d="M224.21,16.24h-17.74l13.08,18.19l-13.07,18.81h16.86c4.51-6.27,9.02-12.54,13.52-18.81
					C232.64,28.36,228.43,22.3,224.21,16.24z"/>
			</g>
		</g>
		<g>
			<path class="st2" d="M103.17,67.54h-3.19l-0.56,1.47h-2.76l3.38-8.8h3.09l3.38,8.8h-2.76L103.17,67.54z M100.57,65.59h2.01
				l-1-2.94L100.57,65.59z"/>
			<path class="st2" d="M113.65,65.71h-1.82v-1.9h4.19v4.35c-1.09,0.67-2.49,0.98-3.76,0.98c-3.35,0-5.15-1.92-5.15-4.55
				c0-3.14,2.56-4.51,5.26-4.51c0.98,0,2.18,0.15,3.15,0.6l-0.18,2.14c-0.71-0.29-1.7-0.52-2.65-0.52c-1.52,0-2.96,0.52-2.96,2.3
				c0,1.48,1.15,2.32,2.53,2.32c0.6,0,1.11-0.08,1.37-0.22L113.65,65.71L113.65,65.71z"/>
			<path class="st2" d="M122.84,69.01l-1.71-2.39H120v2.39h-2.57v-8.8h4.46c2.2,0,3.43,1.39,3.43,3.17c0,1.28-0.74,2.3-1.59,2.69
				l2.18,2.94H122.84z M120,62.36v2.16h1.45c0.76,0,1.24-0.38,1.24-1.09c0-0.74-0.46-1.08-1.24-1.08H120z"/>
			<path class="st2" d="M129.69,69.01h-2.59v-8.8h2.59V69.01z"/>
			<path class="st2" d="M136.24,60.09c0.9,0,1.78,0.14,2.73,0.54l-0.18,2.21c-0.61-0.3-1.43-0.51-2.31-0.51
				c-1.47,0-2.83,0.61-2.83,2.25c0,1.59,1.33,2.32,2.81,2.32c0.85,0,1.54-0.21,2.32-0.69l0.4,2.18c-1.11,0.61-2.12,0.75-3.25,0.75
				c-2.71,0-4.92-1.76-4.92-4.53C131.02,61.59,133.45,60.09,136.24,60.09z"/>
			<path class="st2" d="M140.4,60.21h2.51v5.34c0,0.93,0.81,1.39,1.59,1.39c0.84,0,1.6-0.51,1.6-1.39v-5.34h2.51v5.52
				c0,2.36-2.06,3.41-4.11,3.41c-2.22,0-4.1-1.13-4.1-3.41L140.4,60.21L140.4,60.21z"/>
			<path class="st2" d="M156.96,69.01h-6.81v-8.8h2.59v6.74h4.23L156.96,69.01L156.96,69.01z"/>
			<path class="st2" d="M158.72,62.33h-2.51v-2.11h7.67v2.11h-2.57v6.68h-2.59V62.33z"/>
			<path class="st2" d="M164.99,60.21h2.51v5.34c0,0.93,0.81,1.39,1.59,1.39c0.84,0,1.6-0.51,1.6-1.39v-5.34h2.51v5.52
				c0,2.36-2.06,3.41-4.11,3.41c-2.22,0-4.1-1.13-4.1-3.41V60.21z"/>
			<path class="st2" d="M180.14,69.01l-1.71-2.39h-1.13v2.39h-2.57v-8.8h4.46c2.2,0,3.43,1.39,3.43,3.17c0,1.28-0.74,2.3-1.59,2.69
				l2.18,2.94H180.14z M177.3,62.36v2.16h1.45c0.76,0,1.24-0.38,1.24-1.09c0-0.74-0.46-1.08-1.24-1.08H177.3z"/>
			<path class="st2" d="M190.44,67.54h-3.19l-0.56,1.47h-2.76l3.38-8.8h3.09l3.38,8.8h-2.76L190.44,67.54z M187.84,65.59h2.01
				l-1-2.94L187.84,65.59z"/>
			<path class="st2" d="M201.68,69.01h-6.81v-8.8h2.59v6.74h4.23L201.68,69.01L201.68,69.01z"/>
			<path class="st2" d="M208.87,66.65v2.36h-2.59v-8.8h4.45c2.2,0,3.43,1.39,3.43,3.17c0,1.79-1.23,3.27-3.43,3.27L208.87,66.65
				L208.87,66.65z M208.87,62.35v2.18h1.43c0.76,0,1.24-0.38,1.24-1.09c0-0.75-0.46-1.09-1.24-1.09L208.87,62.35L208.87,62.35z"/>
			<path class="st2" d="M220.8,67.54h-3.19l-0.56,1.47h-2.76l3.38-8.8h3.08l3.38,8.8h-2.76L220.8,67.54z M218.2,65.59h2.01l-1-2.94
				L218.2,65.59z"/>
			<path class="st2" d="M230.64,69.01l-1.71-2.39h-1.13v2.39h-2.57v-8.8h4.46c2.2,0,3.43,1.39,3.43,3.17c0,1.28-0.74,2.3-1.59,2.69
				l2.18,2.94H230.64z M227.8,62.36v2.16h1.45c0.76,0,1.24-0.38,1.24-1.09c0-0.74-0.46-1.08-1.24-1.08H227.8z"/>
			<path class="st2" d="M236.74,62.33h-2.51v-2.11h7.67v2.11h-2.57v6.68h-2.59L236.74,62.33L236.74,62.33z"/>
			<path class="st2" d="M249.48,60.67l-0.21,2.2c-0.54-0.32-1.61-0.65-2.7-0.65c-0.68,0-1.24,0.11-1.24,0.63
				c0,0.36,0.41,0.45,0.85,0.58l1.4,0.41c1.52,0.44,2.42,1.16,2.42,2.53c0,1.66-1.42,2.79-3.69,2.79c-1.67,0-2.97-0.43-3.59-0.73
				l0.26-2.2c0.51,0.28,1.74,0.76,3.14,0.76c0.65,0,1.14-0.15,1.14-0.57c0-0.27-0.19-0.45-0.73-0.59l-1.35-0.36
				c-1.17-0.31-2.49-0.96-2.49-2.65c0-1.68,1.51-2.73,3.75-2.73C247.76,60.08,248.78,60.34,249.48,60.67z"/>
		</g>
		<path class="st2" d="M74.25,43.29c9.26,0,14.45-6.18,14.45-13.72c0-7.46-5.19-13.31-14.45-13.31H55.49v36.97h10.9v-9.93
			L74.25,43.29L74.25,43.29z M72.4,25.22c3.3,0,5.24,1.42,5.24,4.57c0,2.99-2.05,4.57-5.24,4.57h-6.01v-9.15L72.4,25.22L72.4,25.22z
			"/>
		<path class="st2" d="M117.98,53.23h11.63l-14.23-36.97h-13L88.13,53.23h11.63l2.38-6.18h13.44L117.98,53.23z M108.88,26.5
			l4.23,12.36h-8.49L108.88,26.5z"/>
		<path class="st2" d="M168.83,53.23l-9.18-12.36c3.61-1.63,6.72-5.93,6.72-11.3c0-7.46-5.19-13.31-14.45-13.31h-18.79v36.97h10.82
			V43.19h4.75l7.21,10.04L168.83,53.23L168.83,53.23z M150.07,25.27c3.3,0,5.24,1.42,5.24,4.52c0,2.99-2.05,4.57-5.24,4.57h-6.12
			v-9.09H150.07z"/>
		<polygon class="st2" points="201.71,44.57 183.69,44.57 183.69,38.83 199.77,38.83 199.77,30.17 183.69,30.17 183.69,24.97 
			201.58,24.97 201.58,16.26 172.79,16.26 172.79,53.23 201.71,53.23 		"/>
		<path class="st0" d="M36.45,59.55c-13.95,0.73-25.86-9.99-26.59-23.94S19.84,9.75,33.8,9.02c6.66-0.35,12.85,1.91,17.59,5.89
			c-0.55-4.19-1.09-8.37-1.64-12.56C48.65,1.84,47.4,1.34,46,0.88c-1.41-0.46-2.74-0.79-3.93-1.03l-3.65,3.86
			c-1.08-0.11-2.17-0.17-3.27-0.17l0,0c-0.54,0-1.09,0.01-1.63,0.04c-0.56,0.03-1.12,0.07-1.68,0.13l-3.65-3.86
			c-2.69,0.54-5.26,1.38-7.68,2.49l-0.69,5.27c-1.91,1.1-3.69,2.39-5.32,3.87l-5.22-0.97c-1.82,1.98-3.42,4.18-4.75,6.53l2.54,4.66
			c-0.31,0.69-0.6,1.39-0.85,2.11c-0.49,1.36-0.89,2.75-1.18,4.15l-4.79,2.28c-0.22,1.92-0.29,3.88-0.18,5.88
			c0.04,0.74,0.1,1.48,0.19,2.2l4.79,2.28c0.46,2.18,1.14,4.28,2.03,6.26l-2.54,4.66c1.33,2.36,2.93,4.55,4.75,6.53l5.21-0.97
			c1.63,1.47,3.42,2.78,5.33,3.88l0.69,5.26c2.43,1.11,5,1.96,7.68,2.5l3.65-3.86c1.08,0.11,2.17,0.17,3.27,0.17
			c0.54,0,1.09-0.01,1.63-0.04c0.56-0.03,1.12-0.07,1.68-0.13l3.65,3.86c1.2-0.24,2.52-0.57,3.94-1.03c1.4-0.45,2.65-0.96,3.74-1.46
			c0.54-4.18,1.09-8.37,1.63-12.55C47.31,57.08,42.15,59.25,36.45,59.55z"/>
		<path class="st1" d="M36.45,59.55c-13.95,0.73-25.86-9.99-26.59-23.94S19.84,9.75,33.8,9.02c5.5-0.29,10.67,1.2,14.97,3.96
			l-1.71-7.04L45.74,0.8c-1.2-0.38-2.43-0.7-3.68-0.95l-3.65,3.86c-1.08-0.11-2.17-0.17-3.27-0.17l0,0c-0.54,0-1.09,0.01-1.63,0.04
			c-0.66,0.03-1.32,0.09-1.97,0.17c-0.05,0-0.09,0.01-0.14,0.02l0,0c-0.01,0-0.02,0-0.04,0c-1.09,0.13-2.17,0.32-3.23,0.57
			l-4.09-3.38c-1.21,0.4-2.39,0.87-3.54,1.39l-0.69,5.26c-1.91,1.1-3.69,2.39-5.32,3.87h0c-0.01,0.01-0.02,0.02-0.03,0.03
			c-0.21,0.19-0.43,0.39-0.64,0.59c-0.05,0.05-0.1,0.1-0.15,0.15c-0.14,0.14-0.28,0.28-0.42,0.42c-0.11,0.11-0.21,0.22-0.32,0.33
			c-0.08,0.08-0.16,0.17-0.24,0.26c-0.11,0.12-0.22,0.24-0.33,0.36c-0.02,0.03-0.05,0.05-0.07,0.08c-0.06,0.07-0.12,0.14-0.19,0.21
			c-0.07,0.08-0.15,0.16-0.22,0.24l-5.3-0.33c-0.74,1.03-1.42,2.11-2.05,3.21l2.53,4.65c-0.31,0.69-0.6,1.39-0.85,2.11
			c-0.81,2.24-1.35,4.54-1.63,6.88c-0.01,0.07-0.01,0.14-0.02,0.21c-0.02,0.19-0.04,0.38-0.06,0.57c-0.01,0.07-0.01,0.14-0.02,0.21
			L0,34.53c0.01,1.26,0.09,2.52,0.24,3.8l4.79,2.28c0.72,3.43,2,6.65,3.75,9.55c0.01,0.01,0.02,0.03,0.03,0.04l-1.95,4.94
			c0.76,1.02,1.57,2,2.42,2.93l5.21-0.97c2.55,2.31,5.49,4.19,8.7,5.54l1.32,5.13c1.2,0.38,2.43,0.7,3.68,0.95l3.65-3.86
			c1.08,0.11,2.17,0.17,3.27,0.17c0.54,0,1.09-0.01,1.63-0.04c0.67-0.03,1.32-0.09,1.98-0.17c0.05,0,0.09-0.01,0.14-0.01
			c0.01,0,0.02,0,0.03,0c1.09-0.13,2.17-0.32,3.23-0.57l4.09,3.38c1.21-0.4,2.39-0.87,3.54-1.39l0.69-5.26l0.95-7.28
			C47.31,57.08,42.15,59.25,36.45,59.55z"/>
		<path id="S_00000101073270936383245120000005401942451120794505_" class="st2" d="M35.55,14.65C29,14.56,24.62,16.83,23.01,18.4
			c-1.68,1.65-3.64,4.5-3.71,8.09c-0.04,1.85,0.39,3.7,1.28,5.3c1.97,3.53,5.89,5.22,9.49,6.18l5.86,1.57
			c1.94,0.39,3.06,1.48,3.14,2.55c0.04,0.48-0.14,0.93-0.38,1.27c-0.51,0.73-1.98,1.34-4.56,1.2c-3.68-0.2-7.41-1.89-10.85-4.43
			c-1.08,2.9-2.16,5.8-3.23,8.7c1.29,0.95,2.66,1.78,4.11,2.48c3.63,1.76,7.63,2.65,11.65,2.62c3.06-0.02,5.61-0.62,7.23-1.3
			c3.75-1.58,5.71-3.78,6.59-5.42c0.88-1.64,1.33-3.49,1.32-5.34c-0.01-1.69-0.35-3.4-1.13-4.84c-1.6-2.95-4.85-4.82-9.36-6.12
			l-6.06-1.77c-1.91-0.56-3.68-0.93-3.68-2.5c0-0.47,0.11-0.86,0.3-1.19c0.61-1.05,2.22-1.6,5.09-1.56
			c3.54,0.06,7.01,1.49,10.16,3.88c0.75-3.09,1.49-6.19,2.24-9.28C44.53,16.06,40.1,14.71,35.55,14.65z"/>
	</g>
</g>
</svg>
